<?xml version="1.0" encoding="UTF-8"?>
<svg xmlns="http://www.w3.org/2000/svg" width="420mm" height="297mm" viewBox="0 0 420 297" font-family="system-ui, Segoe UI, Arial, sans-serif">
  <defs>
    <style type="text/css"><![CDATA[
      .title { fill: #0f172a; font-size: 7px; font-weight: 700; }
      .blockTitle { fill: #f8fafc; font-size: 5.2px; font-weight: 700; }
      .body { fill: #1e293b; font-size: 4.4px; font-weight: 400; }
      .block { fill: #f8fafc; stroke: #94a3b8; stroke-width: 0.35; }
      .blockHdr { fill: #0f172a; stroke: #0f172a; stroke-width: 0.2; }
      .footer { fill: #475569; font-size: 3.8px; }
    ]]></style>
  </defs>
  <rect width="420" height="297" fill="#ffffff"/>

  <text x="210" y="12" text-anchor="middle" class="title">Territory Run · Venture Geo ? Business Model Canvas (Etapa 5)</text>
  <text x="210" y="18" text-anchor="middle" class="footer">MVP geogr?fico: Suzano-SP (SUZANO_BOUNDING_BOX) · PWA Next.js + Firebase · 2026-05-11</text>

  <g transform="translate(8, 24)">
    <rect class="block" x="0" y="0" width="60" height="175"/>
    <rect class="blockHdr" x="0" y="0" width="60" height="10"/>
    <text x="3" y="7" class="blockTitle">Parcerias-Chave</text>
    <text x="3" y="18" class="body">· Google Firebase (Auth,</text>
    <text x="3" y="24" class="body">  Firestore, Functions)</text>
    <text x="3" y="33" class="body">· Vercel + Analytics</text>
    <text x="3" y="42" class="body">· OSM + Leaflet + Turf</text>
    <text x="3" y="51" class="body">· OSS: shadcn, Radix,</text>
    <text x="3" y="57" class="body">  Zustand</text>
    <text x="3" y="66" class="body">· Clubes/academias locais</text>
    <text x="3" y="72" class="body">  (aquisi??o Suzano)</text>
    <text x="3" y="81" class="body">· UniPiaget Brasil ? CST</text>
    <text x="3" y="87" class="body">  ADS 2026.1 (acad?mico)</text>

    <rect class="block" x="64" y="0" width="60" height="86"/>
    <rect class="blockHdr" x="64" y="0" width="60" height="10"/>
    <text x="67" y="7" class="blockTitle">Atividades-Chave</text>
    <text x="67" y="18" class="body">· Dev/evolu??o produto</text>
    <text x="67" y="24" class="body">  (mapa, corrida, UI)</text>
    <text x="67" y="33" class="body">· Captura hostil + txn</text>
    <text x="67" y="39" class="body">  Firestore/Admin API</text>
    <text x="67" y="48" class="body">· Anti-fraude speed-gate</text>
    <text x="67" y="57" class="body">· CF expireStaleTerritories</text>
    <text x="67" y="63" class="body">  (60 em 60 min)</text>
    <text x="67" y="72" class="body">· Seguran?a cont?nua</text>
    <text x="67" y="78" class="body">· Vendas B2B patroc?nios</text>

    <rect class="block" x="64" y="89" width="60" height="86"/>
    <rect class="blockHdr" x="64" y="89" width="60" height="10"/>
    <text x="67" y="96" class="blockTitle">Recursos-Chave</text>
    <text x="67" y="107" class="body">· C?digo Next.js 16 +</text>
    <text x="67" y="113" class="body">  React 19 + TS</text>
    <text x="67" y="122" class="body">· Modelo Firestore +</text>
    <text x="67" y="128" class="body">  regras de seguran?a</text>
    <text x="67" y="137" class="body">· Squad Venture Geo</text>
    <text x="67" y="143" class="body">  (3 devs na landing)</text>
    <text x="67" y="152" class="body">· Marca + mascote Speed</text>
    <text x="67" y="161" class="body">· Telemetria de corridas</text>
    <text x="67" y="167" class="body">  (ativo dados futuros)</text>

    <rect class="block" x="128" y="0" width="104" height="175"/>
    <rect class="blockHdr" x="128" y="0" width="104" height="10"/>
    <text x="131" y="7" class="blockTitle">Proposta de Valor</text>
    <text x="131" y="19" class="body" font-weight="700">B2C ? corredor</text>
    <text x="131" y="26" class="body">· Territ?rio no mapa (loop,</text>
    <text x="131" y="32" class="body">  ?rea m˛, estados)</text>
    <text x="131" y="41" class="body">· Ranking global + amigos;</text>
    <text x="131" y="47" class="body">  trof?us; disputas</text>
    <text x="131" y="56" class="body">· PWA gr?tis; instalar sem</text>
    <text x="131" y="62" class="body">  loja de apps</text>
    <text x="131" y="71" class="body">· Geoprivacidade como valor</text>
    <text x="131" y="83" class="body" font-weight="700">B2B ? marca</text>
    <text x="131" y="90" class="body">· Audi?ncia ativa geo</text>
    <text x="131" y="96" class="body">  (Suzano / Grande SP)</text>
    <text x="131" y="105" class="body">· Patroc?nios/an?ncios na</text>
    <text x="131" y="111" class="body">  experi?ncia gamificada</text>
    <text x="131" y="120" class="body">· Entrada: a partir de</text>
    <text x="131" y="126" class="body">  R$ 49,99/m?s (landing)</text>

    <rect class="block" x="236" y="0" width="60" height="86"/>
    <rect class="blockHdr" x="236" y="0" width="60" height="10"/>
    <text x="239" y="7" class="blockTitle">Relacionamento</text>
    <text x="239" y="18" class="body">· Self-service na PWA</text>
    <text x="239" y="24" class="body">  (cadastro, login Google)</text>
    <text x="239" y="33" class="body">· Comunidade: amigos +</text>
    <text x="239" y="39" class="body">  competi??o social</text>
    <text x="239" y="48" class="body">· FAQ /ajuda ass?ncrono</text>
    <text x="239" y="57" class="body">· Termos + privacidade</text>
    <text x="239" y="63" class="body">  (LGPD)</text>
    <text x="239" y="72" class="body">· B2B: atendimento</text>
    <text x="239" y="78" class="body">  consultivo direto</text>

    <rect class="block" x="236" y="89" width="60" height="86"/>
    <rect class="blockHdr" x="236" y="89" width="60" height="10"/>
    <text x="239" y="96" class="blockTitle">Canais</text>
    <text x="239" y="107" class="body">· Web/PWA na raiz /</text>
    <text x="239" y="113" class="body">· Redes (IG/FB/in)</text>
    <text x="239" y="122" class="body">· Marketing local Suzano</text>
    <text x="239" y="131" class="body">· E-mail patrocinio@</text>
    <text x="239" y="137" class="body">  venturegeo.com.br</text>
    <text x="239" y="146" class="body">· Rotas /mapa /competicao</text>
    <text x="239" y="152" class="body">  /amigos /trofeus</text>

    <rect class="block" x="300" y="0" width="104" height="175"/>
    <rect class="blockHdr" x="300" y="0" width="104" height="10"/>
    <text x="303" y="7" class="blockTitle">Segmentos de Clientes</text>
    <text x="303" y="19" class="body" font-weight="700">B2C (free)</text>
    <text x="303" y="26" class="body">· Corredores/caminhantes</text>
    <text x="303" y="32" class="body">  Suzano + Grande SP</text>
    <text x="303" y="41" class="body">· 18?35 fitness urbano /</text>
    <text x="303" y="47" class="body">  RL-gaming no mapa</text>
    <text x="303" y="56" class="body">· Clubes e grupos locais</text>
    <text x="303" y="68" class="body" font-weight="700">B2B (receita)</text>
    <text x="303" y="75" class="body">· Marcas esportivas /</text>
    <text x="303" y="81" class="body">  nutri??o / vestu?rio</text>
    <text x="303" y="90" class="body">· Com?rcio de bairro geo</text>
    <text x="303" y="99" class="body">· (Futuro) prefeitura /</text>
    <text x="303" y="105" class="body">  eventos turismo</text>
  </g>

  <g transform="translate(8, 204)">
    <rect class="block" x="0" y="0" width="200" height="78"/>
    <rect class="blockHdr" x="0" y="0" width="200" height="10"/>
    <text x="3" y="7" class="blockTitle">Estrutura de Custos</text>
    <text x="3" y="18" class="body">· Vari?vel: Firestore reads/writes + listeners (aten??o: queries amplas /</text>
    <text x="3" y="24" class="body">  API capture percorre cole??o ? ver DOC_RelatorioFinal)</text>
    <text x="3" y="33" class="body">· Vari?vel: Firebase Auth MAU; Cloud Functions agendadas; bandwidth Vercel</text>
    <text x="3" y="42" class="body">· Fixo: equipa t?cnica + comercial; dom?nio; ferramentas design/analytics</text>
    <text x="3" y="51" class="body">· Eventual: auditoria seguran?a; assessoria jur?dica LGPD</text>
    <text x="3" y="63" class="body" font-weight="700">Perfil: value-driven (UX/privacidade) + cost-driven (nuvem escala com uso)</text>

    <rect class="block" x="204" y="0" width="200" height="78"/>
    <rect class="blockHdr" x="204" y="0" width="200" height="10"/>
    <text x="207" y="7" class="blockTitle">Fontes de Receita</text>
    <text x="207" y="18" class="body">· Principal: patroc?nios e an?ncios B2B integrados ? experi?ncia (copy na</text>
    <text x="207" y="24" class="body">  landing MarketingLanding ? utilizadores 100% gratuitos)</text>
    <text x="207" y="33" class="body">· Pacotes desde R$ 49,99/m?s + contacto patrocinio@venturegeo.com.br</text>
    <text x="207" y="42" class="body">· Hip?tese: eventos patrocinados; white-label prefeitura/clube</text>
    <text x="207" y="51" class="body">· Hip?tese futura (n?o no c?digo): tier premium B2C para m?tricas avan?adas</text>
    <text x="207" y="63" class="body" font-weight="700">Sem gateway de pagamento no reposit?rio ? fatura??o manual/contrato</text>
  </g>

  <text x="210" y="288" text-anchor="middle" class="footer">Centro Universit?rio Piaget ? UniPiaget Brasil · CST em An?lise e Desenvolvimento de Sistemas ? 2026.1 · Projeto de Startups ? Etapa 5 (BMC)</text>
  <text x="210" y="293.5" text-anchor="middle" class="footer">Equipa t?cnica Venture Geo (landing): Leonardo Souza Bastos · Henrique Casagrande · Marcelo Candido</text>
</svg>
