<?xml version="1.0" encoding="UTF-8"?>
<svg xmlns="http://www.w3.org/2000/svg" width="420mm" height="297mm" viewBox="0 0 420 297" font-family="system-ui, Segoe UI, Arial, sans-serif">
  <defs>
    <style type="text/css"><![CDATA[
      .title { fill: #0f172a; font-size: 7px; font-weight: 700; }
      .blockTitle { fill: #f8fafc; font-size: 5.2px; font-weight: 700; }
      .body { fill: #1e293b; font-size: 4.35px; font-weight: 400; }
      .bodySm { fill: #1e293b; font-size: 3.95px; font-weight: 400; }
      .block { fill: #f8fafc; stroke: #94a3b8; stroke-width: 0.35; }
      .blockHdr { fill: #0f172a; stroke: #0f172a; stroke-width: 0.2; }
      .footer { fill: #475569; font-size: 3.8px; }
      .bodyXs { fill: #1e293b; font-size: 3.55px; font-weight: 400; }
    ]]></style>
  </defs>
  <rect width="420" height="297" fill="#ffffff"/>

  <text x="210" y="12" text-anchor="middle" class="title">Territory Run / Venture Geo &#8212; Business Model Canvas (Etapa 5)</text>
  <text x="210" y="18" text-anchor="middle" class="footer">MVP geogr&#225;fico: Suzano-SP (SUZANO_BOUNDING_BOX) &#183; PWA Next.js + Firebase &#183; 2026-05-11</text>

  <g transform="translate(8, 24)">
    <rect class="block" x="0" y="0" width="60" height="175"/>
    <rect class="blockHdr" x="0" y="0" width="60" height="10"/>
    <text x="3" y="7" class="blockTitle">Parcerias-Chave</text>
    <text x="3" y="16" class="bodySm">Servi&#231;os de geolocaliza&#231;&#227;o</text>
    <text x="3" y="21" class="bodySm">e APIs de mapas (GPS)</text>
    <text x="3" y="28" class="bodySm">Distribui&#231;&#227;o: Google Play</text>
    <text x="3" y="33" class="bodySm">e Apple App Store</text>
    <text x="3" y="40" class="bodySm">Google Firebase (Auth,</text>
    <text x="3" y="45" class="bodySm">Firestore, Functions)</text>
    <text x="3" y="52" class="bodySm">Vercel + Analytics</text>
    <text x="3" y="59" class="bodySm">OSM + Leaflet + Turf</text>
    <text x="3" y="66" class="bodySm">OSS: shadcn, Radix,</text>
    <text x="3" y="71" class="bodySm">Zustand</text>
    <text x="3" y="78" class="bodySm">Clubes / academias</text>
    <text x="3" y="83" class="bodySm">locais (Suzano)</text>
    <text x="3" y="90" class="bodySm">UniPiaget Brasil CST</text>
    <text x="3" y="95" class="bodySm">ADS 2026.1</text>

    <rect class="block" x="64" y="0" width="60" height="86"/>
    <rect class="blockHdr" x="64" y="0" width="60" height="10"/>
    <text x="67" y="7" class="blockTitle">Atividades-Chave</text>
    <text x="67" y="18" class="body">Desenvolvimento / evolu&#231;&#227;o</text>
    <text x="67" y="24" class="body">do produto (mapa, UI)</text>
    <text x="67" y="33" class="body">Captura hostil + transa&#231;&#245;es</text>
    <text x="67" y="39" class="body">Firestore / Admin API</text>
    <text x="67" y="48" class="body">Anti-fraude (speed-gate)</text>
    <text x="67" y="57" class="body">CF expireStaleTerrit.</text>
    <text x="67" y="63" class="body">(60 em 60 min)</text>
    <text x="67" y="72" class="body">Seguran&#231;a cont&#237;nua</text>
    <text x="67" y="78" class="body">Vendas B2B</text>

    <rect class="block" x="64" y="89" width="60" height="86"/>
    <rect class="blockHdr" x="64" y="89" width="60" height="10"/>
    <text x="67" y="96" class="blockTitle">Recursos-Chave</text>
    <text x="67" y="106" class="bodySm">Algoritmo propriet&#225;rio</text>
    <text x="67" y="111" class="bodySm">de territ&#243;rio + geo (GPS)</text>
    <text x="67" y="118" class="bodySm">Marca + Speed na UI</text>
    <text x="67" y="125" class="bodySm">Equipe interna: startup</text>
    <text x="67" y="130" class="bodySm">de 3 pessoas</text>
    <text x="67" y="137" class="bodySm">Suporte: Next.js,</text>
    <text x="67" y="142" class="bodySm">Firebase, Firestore</text>

    <rect class="block" x="128" y="0" width="104" height="175"/>
    <rect class="blockHdr" x="128" y="0" width="104" height="10"/>
    <text x="131" y="7" class="blockTitle">Proposta de Valor</text>
    <text x="131" y="17" class="body" font-weight="700">B2C</text>
    <text x="131" y="23" class="body">Corrida individual vira</text>
    <text x="131" y="29" class="body">batalha t&#225;tica de</text>
    <text x="131" y="35" class="body">conquista territorial</text>
    <text x="131" y="44" class="body">Gamifica&#231;&#227;o urbana:</text>
    <text x="131" y="50" class="body">grids e HUDs &#8212; feedback</text>
    <text x="131" y="56" class="body">visual em tempo real</text>
    <text x="131" y="65" class="body">PWA gr&#225;tis; ranking,</text>
    <text x="131" y="71" class="body">trof&#233;us, amigos</text>
    <text x="131" y="80" class="body" font-weight="700">B2B / sustenta&#231;&#227;o</text>
    <text x="131" y="86" class="body">An&#250;ncios de parceiros</text>
    <text x="131" y="92" class="body">(financiam uso</text>
    <text x="131" y="98" class="body">100% gr&#225;tis na landing)</text>
    <text x="131" y="107" class="body">Entrada marcas: a partir</text>
    <text x="131" y="113" class="body">de R$ 49,99 / m&#234;s</text>

    <rect class="block" x="236" y="0" width="60" height="86"/>
    <rect class="blockHdr" x="236" y="0" width="60" height="10"/>
    <text x="239" y="7" class="blockTitle">Relacionamento</text>
    <text x="239" y="17" class="bodySm">Experi&#234;ncia gamificada:</text>
    <text x="239" y="22" class="bodySm">reten&#231;&#227;o + competitividade</text>
    <text x="239" y="29" class="bodySm">Mascote Speed:</text>
    <text x="239" y="34" class="bodySm">intera&#231;&#227;o humanizada</text>
    <text x="239" y="41" class="bodySm">Notifica&#231;&#245;es inteligentes</text>
    <text x="239" y="46" class="bodySm">+ suporte t&#233;cnico via</text>
    <text x="239" y="51" class="bodySm">plataforma (/ajuda)</text>
    <text x="239" y="58" class="bodySm">Self-service PWA +</text>
    <text x="239" y="63" class="bodySm">LGPD / termos</text>
    <text x="239" y="70" class="bodySm">B2B: consultivo</text>
    <text x="239" y="75" class="bodySm">direto (e-mail)</text>

    <rect class="block" x="236" y="89" width="60" height="86"/>
    <rect class="blockHdr" x="236" y="89" width="60" height="10"/>
    <text x="239" y="96" class="blockTitle">Canais</text>
    <text x="239" y="104" class="bodySm">Landing page oficial</text>
    <text x="239" y="109" class="bodySm">hospedada na Vercel.</text>
    <text x="239" y="116" class="bodySm">Aplicativo mobile</text>
    <text x="239" y="121" class="bodySm">TerritoryRun (PWA).</text>
    <text x="239" y="128" class="bodySm">Redes sociais focadas</text>
    <text x="239" y="133" class="bodySm">em conte&#250;do din&#226;mico</text>
    <text x="239" y="140" class="bodySm">(Instagram/Facebook).</text>
    <text x="239" y="147" class="bodySm">Marketing local; B2B</text>
    <text x="239" y="152" class="bodySm">e rotas /mapa&#8230;</text>

    <rect class="block" x="300" y="0" width="104" height="175"/>
    <rect class="blockHdr" x="300" y="0" width="104" height="10"/>
    <text x="303" y="7" class="blockTitle">Segmentos de Clientes</text>
    <text x="303" y="17" class="body" font-weight="700">B2C</text>
    <text x="303" y="23" class="body">Corredores amadores e</text>
    <text x="303" y="29" class="body">profissionais (motiva&#231;&#227;o</text>
    <text x="303" y="35" class="body">extra no treino)</text>
    <text x="303" y="44" class="body">Entusiastas tech +</text>
    <text x="303" y="50" class="body">esporte (Geogamers)</text>
    <text x="303" y="59" class="body">Performance, dados e</text>
    <text x="303" y="65" class="body">estrat&#233;gia no mapa</text>
    <text x="303" y="74" class="body">Foco regional MVP:</text>
    <text x="303" y="80" class="body">Suzano + Grande SP</text>
    <text x="303" y="89" class="body" font-weight="700">B2B (receita)</text>
    <text x="303" y="95" class="body">Marcas locais /</text>
    <text x="303" y="101" class="body">nutri&#231;&#227;o / vestu&#225;rio</text>
    <text x="303" y="110" class="body">Com&#233;rcio geo; (futuro)</text>
    <text x="303" y="116" class="body">prefeitura / eventos</text>
  </g>

  <g transform="translate(8, 204)">
    <rect class="block" x="0" y="0" width="200" height="78"/>
    <rect class="blockHdr" x="0" y="0" width="200" height="10"/>
    <text x="3" y="7" class="blockTitle">Estrutura de Custos</text>
    <text x="3" y="17" class="bodyXs">Hospedagem (Vercel) + manuten&#231;&#227;o</text>
    <text x="3" y="22" class="bodyXs">do banco (Firestore, Auth, CF)</text>
    <text x="3" y="30" class="bodyXs">Desenvolvimento cont&#237;nuo (equipe)</text>
    <text x="3" y="38" class="bodyXs">Marketing digital + ferramentas</text>
    <text x="3" y="46" class="bodyXs">Vari&#225;vel: uso Firestore em escala</text>
    <text x="3" y="54" class="bodyXs">Eventual: auditoria + LGPD</text>

    <rect class="block" x="204" y="0" width="200" height="78"/>
    <rect class="blockHdr" x="204" y="0" width="200" height="10"/>
    <text x="207" y="7" class="blockTitle">Fontes de Receita</text>
    <text x="207" y="17" class="bodyXs">Hoje: B2B an&#250;ncios &#8212; landing</text>
    <text x="207" y="22" class="bodyXs">R$ 49,99/m&#234;s &#8212; contato e-mail</text>
    <text x="207" y="30" class="bodyXs">Roadmap: assinatura premium</text>
    <text x="207" y="38" class="bodyXs">Freemium + territ&#243;rio b&#225;sico</text>
    <text x="207" y="46" class="bodyXs">Futuro: taxas in-app, skins</text>
    <text x="207" y="54" class="bodyXs">Sem gateway de pagto no repo</text>
  </g>

  <text x="210" y="288" text-anchor="middle" class="footer">Centro Universit&#225;rio Piaget &#8212; UniPiaget Brasil &#8212; CST ADS 2026.1 &#8212; Projeto Startups Etapa 5 (BMC)</text>
  <text x="210" y="293.5" text-anchor="middle" class="footer">Equipe Venture Geo: Leonardo Souza Bastos &#8212; Henrique Casagrande &#8212; Marcelo Candido</text>
</svg>
